<?xml version="1.0" encoding="UTF-8"?>
<svg version="1.1" viewBox="0 0 1600 960" width="5000" height="3001" xmlns="http://www.w3.org/2000/svg">
<path transform="translate(0)" d="m0 0h1600v960h-1600z" fill="#FEFEFE"/>
<path transform="translate(367,157)" d="m0 0h28l18 3 19 6 15 7 14 9 10 8 11 10 9 11 10 15 9 19 5 16 3 18 1 16 649 1 8 4 5 7 1 4v493h-760v-378l-16 4-15 2h-19l-21-3-18-5-18-8-16-10-15-13-11-12-12-18-8-16-4-11-4-16-2-16v-19l2-16 5-19 9-21 9-14 8-10 9-10 10-9 15-10 15-8 16-6 18-4z" fill="#FEFEFE"/>
<path transform="translate(367,157)" d="m0 0h28l18 3 19 6 15 7 14 9 10 8 11 10 9 11 10 15 9 19 5 16 3 18 1 16 649 1 8 4 5 7 1 4v493h-760v-378l-16 4-15 2h-19l-21-3-18-5-18-8-16-10-15-13-11-12-12-18-8-16-4-11-4-16-2-16v-19l2-16 5-19 9-21 9-14 8-10 9-10 10-9 15-10 15-8 16-6 18-4zm146 173-6 18-8 16-8 12-9 11-11 11-17 13v366l1 1h697l1-1v-447z" fill="#161616"/>
<path transform="translate(998,35)" d="m0 0h32l22 4 16 5 22 11 13 8v2l5 2v2l5 2 16 16 11 15 8 14 7 15 6 19 3 22v31l-3 17-4 14-4 9-3 7-5 10-10 15-11 13-5 5h-210l-7-6-2-5-3-1-7-9v-3h-2l-3-5v-3h-2l-8-16-6-17-4-17-2-19v-14l2-18 5-21 8-20 11-19 13-16 14-14 15-11 16-9 16-7 17-5z" fill="#4D7CA7"/>
<path transform="translate(367,157)" d="m0 0h28l18 3 19 6 15 7 14 9 10 8 11 10 9 11 10 15 9 19 5 16 3 18 1 17-2 22-3 11h638v1h-639l-1 7-8 20-9 15-11 14-13 13-16 12-19 10-21 7-15 3-9 1h-19l-21-3-18-5-18-8-16-10-15-13-11-12-12-18-8-16-4-11-4-16-2-16v-19l2-16 5-19 9-21 9-14 8-10 9-10 10-9 15-10 15-8 16-6 18-4z" fill="#99B954"/>
<path transform="translate(1338,313)" d="m0 0h18l19 3 17 6 14 7 11 7 13 12 8 9 10 15 7 16 4 13 2 11 1 19-2 18-5 18-11 22-10 13-14 14-13 9-16 8-14 5-16 3h-26l-20-4-16-6-16-9-11-9-14-14-10-15-9-21-3-9-2-11-1-20 2-16 4-17 8-18 10-15 11-12 10-9 14-9 15-7 17-5z" fill="#C07171"/>
<path transform="translate(219,577)" d="m0 0h12l19 3 19 7 13 8 10 8 9 9 9 13 7 14 5 17 2 15v9l-2 16-5 17-9 17-8 10-8 9-13 10-16 8-15 5-11 2h-24l-18-4-17-7-12-8-10-9-8-8-9-14-6-12-5-17-1-7v-25l5-21 8-16 7-11 12-13 15-11 17-8 14-4z" fill="#E2DB41"/>
<path transform="translate(518,288)" d="m0 0h1v5l390-1h211l51 1 6 3 6 7 2 5v496h70v12l-4 4-21 8-13 3h-830l-17-4-18-7-4-5v-11h71v-378h3v378h760l-1-493-3-7-5-5-5-2-649-1-1-1z" fill="#E5E6EA"/>
<path transform="translate(998,35)" d="m0 0h32l22 4 16 5 22 11 13 8v2l5 2v2l5 2 16 16-1 2-5 5-10 8-13 10-14 11-4 5h-2l-6-11-11-12-10-7-11-5-11-3h-22l-16 5-11 6-12 11-7 10-6 13-3 14v16l4 17 7 13 8 10 2 4-16 13-16 12-15 12-11 8-14 11-9 6-4 1v-3h-2l-3-5v-3h-2l-8-16-6-17-4-17-2-19v-14l2-18 5-21 8-20 11-19 13-16 14-14 15-11 16-9 16-7 17-5z" fill="#5794C9"/>
<path transform="translate(1338,313)" d="m0 0h18l19 3 17 6 14 7 11 7 13 12 6 7-1 5-4 4h-2l-2 4-6 3-3 1-2 4-5 5-9-10-1-1-9 1-12 12-7 1-5-4-8 7-27 27v4l4-2 29-29h3l-2 4-58 58-8 20-9 3-5 5-5 2-5 5-8 6h-2l-2 4-8 1-5-5-4-6-9-21-3-9-2-11-1-20 2-16 4-17 8-18 10-15 11-12 10-9 14-9 15-7 17-5z" fill="#CF7575"/>
<path transform="translate(1009,89)" d="m0 0h22l14 4 13 7 10 9 7 8 8 16 3 11v24l-5 16-6 11-9 11-10 8-14 7-5 1-2 13-5 24-5 6-2 1h-10l-1 4h-9l-18-4-2-2v-5l-6-1-5-5-1-2v-8l7-34-4-2-8-9-8-14-4-13-1-6v-16l3-14 8-16 7-9 7-7 11-7 12-5z" fill="#2B4753"/>
<path transform="translate(379,232)" d="m0 0 12 5 38 18 30 14 19 9 1 1 1 35 3 2v7l-3 2h-5l-3-3v-5l3-3 1-29-37 18-1 25-4 5-15 7-17 5-12 2h-21l-20-4-16-6-11-6-1-2v-25l-9-3-31-15-1-5 19-10 26-13 23-11 28-14z" fill="#5D6D2D"/>
<path transform="translate(515,270)" d="m0 0 2 2 2 23-2 23-3 11h638v1h-639l-1 7-8 20-9 15-11 14-13 13-16 12-19 10-21 7-15 3-9 1h-19l-21-3-18-5-1-3 5-4 13-10 11-9 11-8 20-16 8-6 10-8 8-6 11-8 5-5 11-8 8-6 14-11 6-2v3 5l2 2 7-1v-7l-3-2v-34h1l1 26h2l2-4 28-22 3-1-2-4z" fill="#8BA754"/>
<path transform="translate(353,819)" d="m0 0h897l-1 2-22 8-10 2h-830l-17-4-15-6z" fill="#BDC0C3"/>
<path transform="translate(1181,311)" d="m0 0h1v493h-760v-378l4-2-2 3v356l4 5 6 3h736l7-4 3-4z" fill="#252527"/>
<path transform="translate(998,35)" d="m0 0h32l18 3-4 2-10 9-11 8-14 11-54 42-17 13-14 11-18 14-14 11-13 10-11 8-3 1-1-1v-10l4-21 6-18 8-16 8-13 11-14 15-15 15-11 16-9 16-7 17-5z" fill="#5CA0DB"/>
<path transform="translate(1459,420)" d="m0 0 3 3-1 20-5 21-7 16-7 12-9 11-13 13-13 9-16 8-14 5-16 3h-26l-20-4-3-1v-2l9-5 11-9 12-9 16-13 20-15 7-6 8-6 13-10 3-1v-2l14-10 10-8 14-11 7-5 1-2h2z" fill="#B66B6C"/>
<path transform="translate(988,506)" d="m0 0h16l11 4 9 6 7 7 7 14 1 4v16l-4 12-6 9-9 8-10 5-9 2h-11l-13-4-10-6-8-9-5-10-2-9v-11l3-12 7-11 7-7 14-7z" fill="#424243"/>
<path transform="translate(182,649)" d="m0 0h9l12 3 10 6 5 4 9-2 7 2 9-8 10-4 6-1h11l13 4 9 6 5 7 2 6v8l-4 9-7 7-10 5-4 1h-19l-11-4-8-6-5-7-1-3v-13l-1-1h-7l-1 3v10l-5 10-9 7-11 4h-19l-11-4-9-7-5-10v-10l4-9 9-8 11-4z" fill="#807B2C"/>
<path transform="translate(544,506)" d="m0 0h32l10 3 10 6 8 8 5 8 3 12v13l-4 13-8 11-9 7-8 4-9 2h-30z" fill="#424244"/>
<path transform="translate(369,825)" d="m0 0h835l28 1-2 2-13 3h-830l-17-4z" fill="#ACACAD"/>
<path transform="translate(1395,369)" d="m0 0h6l9 9 1 6-4 7-10 10-2 7-63 63-20 8-7 2-6-6 1-6 8-20 60-60 1-2-5 3-29 29-3-1 1-5 33-33 3-1 4 4 7-1 12-12z" fill="#8E4A4B"/>
<path transform="translate(975,208)" d="m0 0 3 1-1 10-5 24v8l3 5 8 3 2 6 2 3-10 8-16 12-5 3 118 1v1h-165l-7-6-2-5-3-1-6-8 1-3 6-2 16-13 19-14 15-12 12-9z" fill="#5186B5"/>
<path transform="translate(1048,506)" d="m0 0h20l10 16 19 32 5 8 1-56h17v87h-20l-10-16-24-40-1 56h-17z" fill="#434244"/>
<path transform="translate(1127,88)" d="m0 0 5 3 10 14 11 21 3 10-5 5-39 30-20 16-16 12-7 4 2-4 7-11 5-12 2-8v-24l-4-16 7-8 26-20 11-8z" fill="#5186B4"/>
<path transform="translate(805,506)" d="m0 0h19l7 19 12 33 12 34v1h-18l-5-12-4-11v-2l-27 1-9 24h-18l1-5 20-56 9-24z" fill="#424244"/>
<path transform="translate(483,506)" d="m0 0h53v17l-35 1v16l35 1v17l-35 1v16l35 1v17h-53z" fill="#424343"/>
<path transform="translate(989,145)" d="m0 0h10l6 4 4 5 1 2v11l-1 10 14 3 2-13 3-6 6-5 5-2 9 1 7 5 3 6v10l-3 6-6 5-3 1h-10l-10-2-2 13-6 27 9 1 4 2-1 4-11-1-35-7-4-2 1-4 13 1 8-40-10-1-8-3-6-7-1-3v-8l4-8 5-4z" fill="#5083B1"/>
<path transform="translate(620,506)" d="m0 0h17l1 54 3 9 6 5 9 1 7-3 5-6 1-4 1-56h17v58l-3 10-6 9-8 6-7 3-5 1h-9l-10-3-6-4-5-5-5-7-3-12z" fill="#424343"/>
<path transform="translate(1313,111)" d="m0 0h10l10 4 8 6 4 5 3 7 1 5v8l-3 10-6 8-8 6-10 3-13-1-8-4-7-6-6-12-1-13 4-11 8-9 10-5z" fill="#8AA750"/>
<path transform="translate(731,506)" d="m0 0h16l11 4 9 6v4l-10 10-9-5-4-1h-11l-9 4-5 4-5 9-1 5v7l4 11 7 7 7 3 10 1 10-3 6-3 11 11-2 4-8 5-9 3-5 1h-11l-13-4-8-5-6-5-6-9-4-10-1-5v-11l3-11 4-8 9-10 9-6z" fill="#424243"/>
<path transform="translate(852,506)" d="m0 0h66v17h-24v70h-17l-1-1v-69h-24z" fill="#444343"/>
<path transform="translate(990,523)" d="m0 0h11l8 3 8 7 4 8 1 3v11l-4 9-5 6-9 5-5 1h-7l-11-4-5-4-5-8-2-7v-8l4-10 6-7 8-4z" fill="#FBFBFB"/>
<path transform="translate(88,432)" d="m0 0h12l10 5 8 9 2 6v13l-4 9-7 6h-2v2l-5 2h-14l-7-2-7-6v-2h-2v-3h-2l-2-5v-15l4-8 4-5z" fill="#507DA7"/>
<path transform="translate(1385,712)" d="m0 0h12l10 5 8 9 2 6v13l-5 9-6 6h-2v2l-5 2h-14l-8-3-6-5v-2h-2l-4-10v-13l4-8 4-5z" fill="#4F7DA7"/>
<path transform="translate(184,655)" d="m0 0 12 1 12 6 5 6 2 5-1 9-5 7-8 5-7 2h-15l-11-4-7-6-3-7v-7l4-7 7-6 8-3z" fill="#E2DB41"/>
<path transform="translate(1531,531)" d="m0 0h13l8 4 7 8 3 10-1 9-6 10-7 5-7 2h-7l-9-3-6-5-4-6-2-8 1-9 4-8 8-7z" fill="#E2DB41"/>
<path transform="translate(262,655)" d="m0 0 11 1 10 4 6 5 3 6v10l-4 6-6 5-11 4h-14l-11-4-8-7-2-5v-9l4-6 7-6 8-3z" fill="#E2DB41"/>
<path transform="translate(561,523)" d="m0 0h13l9 4 7 6 4 8 1 4v8l-3 9-5 7-8 5-8 2h-9l-1-1z" fill="#F8F8F8"/>
<path transform="translate(661,153)" d="m0 0h8l8 3 7 7 3 8v8l-4 9-7 6-9 3-9-1-8-5-4-5-3-9 1-9 5-8 6-5z" fill="#B66D6E"/>
<path transform="translate(927,506)" d="m0 0h17v87h-17z" fill="#464244"/>
<path transform="translate(88,432)" d="m0 0h12l10 5 4 5-28 22-11 8h-2l-1 2v-3h-2l-2-5v-15l4-8 4-5z" fill="#5794CA"/>
<path transform="translate(1385,712)" d="m0 0h12l10 5 4 5-18 14h-2v2l-12 9-9 7-2-3-3-7v-13l4-8 4-5z" fill="#5794CA"/>
<path transform="translate(202,57)" d="m0 0h10l6 3 6 7 1 3v10l-4 7-5 4-5 2h-8l-8-4-5-7-1-3v-8l4-8 6-5z" fill="#E2DB41"/>
<path transform="translate(1006,182)" d="m0 0 10 1 6 2-5 27-3 13-15-3 1-10z" fill="#2B4753"/>
<path transform="translate(1037,159)" d="m0 0h9l5 3 3 5v8l-4 6-5 3h-7l-10-2-1-3 3-13 5-6z" fill="#2B4753"/>
<path transform="translate(991,149)" d="m0 0 9 1 5 5 1 3v7l-2 10-5 1-12-3-5-6-1-7 3-7 4-3z" fill="#2B4753"/>
<path transform="translate(1410,722)" d="m0 0 3 1 3 6v2l-11 8-12 10-11 8-5 3-4-2-3-5 15-12 4-3h2v-2l12-9z" fill="#5286B5"/>
<path transform="translate(989,145)" d="m0 0h10l6 4 4 5 1 2v11l-1 10 6 2 2 2v2l-11-1-1 10h-3-1v-7l1-5-10-1-8-3-6-7-1-3v-8l4-8 5-4zm2 4-6 3-3 4-1 8 3 6 3 3 12 3 5-1 2-10v-7l-3-5-3-3z" fill="#548EC2"/>
<path transform="translate(113,442)" d="m0 0 3 1 2 3-1 5-7 7-13 10-14 10-5 2-5-6v-2l9-6 28-22z" fill="#5186B5"/>
<path transform="translate(1313,111)" d="m0 0h10l3 2h-2l-1 4-5 4h-2v2l-11 8-13 10-3 1-2-2 2-10 6-9 7-6z" fill="#99B957"/>
<path transform="translate(661,153)" d="m0 0h8l8 3-2 1-2 4-12 10-8 6-8 5h-1l-1-9 3-9 6-7z" fill="#C07575"/>
<path transform="translate(976,244)" d="m0 0 10 1 39 8 1 4-3 2-44-9-4-1z" fill="#5084B2"/>
<path transform="translate(88,432)" d="m0 0h12l-3 1-2 4-14 11h-2v2l-9 6-2-1 1-7 6-9 10-6z" fill="#61A1DA"/>
<path transform="translate(979,231)" d="m0 0 13 2 34 7 3 3-1 3-9-1-40-8-1-5z" fill="#5084B2"/>
<path transform="translate(1385,712)" d="m0 0h12l-3 1-2 4-10 8-14 10-3 1 1-8 6-9 10-6z" fill="#61A1DA"/>
<path transform="translate(814,532)" d="m0 0 2 2 5 14v3h-14l6-18z" fill="#F0F0F1"/>
<path transform="translate(658,154)" d="m0 0 6 1-3 5-13 9-3-1 2-6 8-7z" fill="#CF7777"/>
<path transform="translate(1039,154)" d="m0 0 9 1v2l-10 2-6 5-4 9h-3l1-9 6-7z" fill="#548EC1"/>
<path transform="translate(799,304)" d="m0 0 7 1 4 5-1 7-5 4h-6l-5-5v-7l4-4zm0 2-4 4 1 7 3 2 7-1 2-3v-5l-4-4z" fill="#232325"/>
<path transform="translate(1011,251)" d="m0 0 10 1 5 2-1 4-2 1-15-3v-4z" fill="#4D7CA7"/>
<path transform="translate(301,670)" d="m0 0 5 3 1 5-2 2h-4z" fill="#807D2F"/>
<path transform="translate(149,670)" d="m0 0 1 3v6l-4 1-3-3 2-5z" fill="#807D2E"/>
<path transform="translate(273,670)" d="m0 0h2l-2 4-10 13-2-2 11-14z" fill="#817F30"/>
<path transform="translate(268,665)" d="m0 0h2l-2 4-10 13-2-2z" fill="#807D2E"/>
<path transform="translate(1044,219)" d="m0 0 4 1h-2l-1 3-7 5h-1v-6z" fill="#5085B3"/>
<path transform="translate(1022,240)" d="m0 0 6 1 1 2-1 3-9-1 1-4z" fill="#4D7CA7"/>
<path transform="translate(193,670)" d="m0 0h2l-2 4-10 13-2-2z" fill="#807C2D"/>
<path transform="translate(188,665)" d="m0 0h2l-2 4-10 13-2-2z" fill="#807B2C"/>
<path transform="translate(1298,476)" d="m0 0 1 2h2v2h2l-1 3-7 2 1-5z" fill="#8E4A4B"/>
</svg>
